<svg xmlns="http://www.w3.org/2000/svg" width="194pt" height="194pt" viewBox="0 0 194 194">
  <path style="fill:none;stroke-width:.4;stroke-linecap:butt;stroke-linejoin:round;stroke:#000;stroke-opacity:1;stroke-miterlimit:10" d="M384 608c0 35.348-28.652 64-64 64s-64-28.652-64-64 28.652-64 64-64 64 28.652 64 64Zm0 0" transform="matrix(1 0 0 -1 -223 705)"/>
  <path style="fill:none;stroke-width:.4;stroke-linecap:butt;stroke-linejoin:round;stroke:#000;stroke-opacity:1;stroke-miterlimit:10" d="M416 608c0 53.02-42.98 96-96 96s-96-42.98-96-96 42.98-96 96-96 96 42.98 96 96Zm0 0" transform="matrix(1 0 0 -1 -223 705)"/>
  <path style="fill:none;stroke-width:.4;stroke-linecap:butt;stroke-linejoin:round;stroke:#000;stroke-opacity:1;stroke-miterlimit:10" d="M352 608c0 17.672-14.328 32-32 32s-32-14.328-32-32 14.328-32 32-32 32 14.328 32 32Zm0 0" transform="matrix(1 0 0 -1 -223 705)"/>
</svg>
