<svg xmlns="http://www.w3.org/2000/svg" width="257pt" height="113pt" viewBox="0 0 257 113">
  <path style="fill:none;stroke-width:.4;stroke-linecap:butt;stroke-linejoin:round;stroke:#000;stroke-opacity:1;stroke-miterlimit:10" d="M64 736.004V624h112v112.004Zm0 0" transform="matrix(1 0 0 -1 -63 737)"/>
  <path style="fill:none;stroke-width:.4;stroke-linecap:butt;stroke-linejoin:round;stroke:#000;stroke-opacity:1;stroke-miterlimit:10" d="M80 720v-80h80v80Zm0 0" transform="matrix(1 0 0 -1 -63 737)"/>
  <path style="fill:none;stroke-width:.4;stroke-linecap:butt;stroke-linejoin:round;stroke:#000;stroke-opacity:1;stroke-miterlimit:10" d="M96 704v-48h48v48Zm0 0" transform="matrix(1 0 0 -1 -63 737)"/>
  <path style="fill:none;stroke-width:.4;stroke-linecap:butt;stroke-linejoin:round;stroke:#000;stroke-opacity:1;stroke-miterlimit:10" d="M112 688v-16h16v16Zm96 48V624h112v112Zm0 0" transform="matrix(1 0 0 -1 -63 737)"/>
  <path style="fill:none;stroke-width:.4;stroke-linecap:butt;stroke-linejoin:round;stroke:#000;stroke-opacity:1;stroke-miterlimit:10" d="M224 720v-80h80v80Zm0 0" transform="matrix(1 0 0 -1 -63 737)"/>
  <path style="fill:none;stroke-width:.4;stroke-linecap:butt;stroke-linejoin:round;stroke:#000;stroke-opacity:1;stroke-miterlimit:10" d="M240 704v-48h48v48Zm0 0" transform="matrix(1 0 0 -1 -63 737)"/>
  <path style="fill:none;stroke-width:.4;stroke-linecap:butt;stroke-linejoin:round;stroke:#000;stroke-opacity:1;stroke-miterlimit:10" d="M256 688v-16h16v16Zm0 0" transform="matrix(1 0 0 -1 -63 737)"/>
</svg>
