<svg xmlns="http://www.w3.org/2000/svg" width="300" height="145pt" viewBox="0 0 225 145">
  <path style="fill:none;stroke-width:.4;stroke-linecap:butt;stroke-linejoin:round;stroke:#000;stroke-opacity:1;stroke-miterlimit:10" d="M160 752V608h112v144Zm0 0" transform="matrix(1 0 0 -1 -111 753)"/>
  <path style="fill:none;stroke-width:.4;stroke-linecap:butt;stroke-linejoin:round;stroke:#000;stroke-opacity:1;stroke-miterlimit:10" d="M192 704v-64h64v64Zm0 0" transform="matrix(1 0 0 -1 -111 753)"/>
  <path style="fill:none;stroke-width:.4;stroke-linecap:butt;stroke-linejoin:round;stroke:#000;stroke-opacity:1;stroke-miterlimit:10" d="M240 640v96h-64v-96Zm0 0" transform="matrix(1 0 0 -1 -111 753)"/>
  <path style="fill:none;stroke-width:.4;stroke-linecap:butt;stroke-linejoin:round;stroke:#000;stroke-opacity:1;stroke-miterlimit:10" d="M208 720v-96h16v96Zm0 0" transform="matrix(1 0 0 -1 -111 753)"/>
  <path style="fill:none;stroke-width:.4;stroke-linecap:butt;stroke-linejoin:round;stroke:#000;stroke-opacity:1;stroke-miterlimit:10" d="M192 688v-48h48v48Zm0 0" transform="matrix(1 0 0 -1 -111 753)"/>
  <path style="fill:none;stroke-width:.4;stroke-linecap:butt;stroke-linejoin:round;stroke:#000;stroke-opacity:1;stroke-miterlimit:10" d="M112 720v-80h224v80Zm0 0" transform="matrix(1 0 0 -1 -111 753)"/>
</svg>
