<svg xmlns="http://www.w3.org/2000/svg" width="290pt" height="178pt" viewBox="0 0 290 178">
  <path style="fill:none;stroke-width:.8;stroke-linecap:butt;stroke-linejoin:round;stroke:#002546;stroke-opacity:1;stroke-miterlimit:10" d="M2512 3816c0 8.836-7.164 16-16 16s-16-7.164-16-16 7.164-16 16-16 16 7.164 16 16Zm0-48c0 8.836-7.164 16-16 16s-16-7.164-16-16 7.164-16 16-16 16 7.164 16 16Zm0-48c0 8.836-7.164 16-16 16s-16-7.164-16-16 7.164-16 16-16 16 7.164 16 16Zm256 48c0 8.836-7.164 16-16 16s-16-7.164-16-16 7.164-16 16-16 16 7.164 16 16Zm0 0" transform="matrix(1 0 0 -1 -2479 3857)"/>
  <path style="fill:none;stroke-width:.4;stroke-linecap:butt;stroke-linejoin:round;stroke:#4b4b4a;stroke-opacity:1;stroke-miterlimit:10" d="m2512 3816 32 24m-32-24 32-24m-32 24 32-72m-32 72 32-120m-32 72 32 72m-32-72 32 24m-32-24 32-24m-32 24 32-72m-32 24 32 120m-32-120 32 72m-32-72 32 24m-32-24 32-24m160 144 32-72m-32 24 32-24m-32-24 32 24m-32-72 32 72" transform="matrix(1 0 0 -1 -2479 3857)"/>
  <path style="fill:none;stroke-width:.8;stroke-linecap:butt;stroke-linejoin:round;stroke:#002546;stroke-opacity:1;stroke-miterlimit:10" d="M2576 3840c0 8.836-7.164 16-16 16s-16-7.164-16-16 7.164-16 16-16 16 7.164 16 16Zm0-48c0 8.836-7.164 16-16 16s-16-7.164-16-16 7.164-16 16-16 16 7.164 16 16Zm0-48c0 8.836-7.164 16-16 16s-16-7.164-16-16 7.164-16 16-16 16 7.164 16 16Zm0-48c0 8.836-7.164 16-16 16s-16-7.164-16-16 7.164-16 16-16 16 7.164 16 16Zm64 144c0 8.836-7.164 16-16 16s-16-7.164-16-16 7.164-16 16-16 16 7.164 16 16Zm0-48c0 8.836-7.164 16-16 16s-16-7.164-16-16 7.164-16 16-16 16 7.164 16 16Zm0-48c0 8.836-7.164 16-16 16s-16-7.164-16-16 7.164-16 16-16 16 7.164 16 16Zm0-48c0 8.836-7.164 16-16 16s-16-7.164-16-16 7.164-16 16-16 16 7.164 16 16Zm64 144c0 8.836-7.164 16-16 16s-16-7.164-16-16 7.164-16 16-16 16 7.164 16 16Zm0-48c0 8.836-7.164 16-16 16s-16-7.164-16-16 7.164-16 16-16 16 7.164 16 16Zm0-48c0 8.836-7.164 16-16 16s-16-7.164-16-16 7.164-16 16-16 16 7.164 16 16Zm0-48c0 8.836-7.164 16-16 16s-16-7.164-16-16 7.164-16 16-16 16 7.164 16 16Zm0 0" transform="matrix(1 0 0 -1 -2479 3857)"/>
  <path style="fill:none;stroke-width:.4;stroke-linecap:butt;stroke-linejoin:round;stroke:#4b4b4a;stroke-opacity:1;stroke-miterlimit:10" d="M2576 3840h32m-32 0 32-48m-32 48 32-96m-32 96 32-144m-32 96 32 48m-32-48h32m-32 0 32-48m-32 0 32-48m-32 96 32-96m-32 48h32m-32 0 32 48m-32-48 32 96m-32-144 32 144m-32-144 32 96m-32-96 32 48m-32-48h32m32 144h32m-32 0 32-48m-32 48 32-96m-32 96 32-144m-32 96 32 48m-32-48h32m-32 0 32-48m-32 0 32-48m-32 96 32-96m-32 48h32m-32 0 32 48m-32-48 32 96m-32-144 32 144m-32-144 32 96m-32-96 32 48m-32-48h32" transform="matrix(1 0 0 -1 -2479 3857)"/>
</svg>
