<svg xmlns="http://www.w3.org/2000/svg" xmlns:xlink="http://www.w3.org/1999/xlink" width="338pt" height="178pt" viewBox="0 0 338 178">
  <defs>
    <symbol overflow="visible" id="a">
      <path style="stroke:none" d="M6.031-7.984v-.422H.97v.422Zm0 0"/>
    </symbol>
    <symbol overflow="visible" id="b">
      <path style="stroke:none" d="M2.063-.313c.359.329.89.454 1.374.454.922 0 1.547-.61 1.891-1.063.14.766.734 1.063 1.234 1.063.438 0 .782-.25 1.047-.766.22-.5.422-1.375.422-1.422a.14.14 0 0 0-.14-.14c-.125 0-.141.078-.204.296-.218.844-.484 1.75-1.078 1.75-.406 0-.437-.375-.437-.656 0-.344.125-.86.219-1.281l.406-1.547c.062-.281.219-.922.281-1.188.094-.343.25-.953.25-1.015 0-.203-.172-.36-.39-.36-.125 0-.422.063-.547.5l-1 3.985c-.063.281-.063.312-.25.547C4.969-.922 4.406-.141 3.5-.141c-.797 0-1.063-.593-1.063-1.265 0-.422.126-.922.188-1.157l.64-2.593c.079-.266.188-.719.188-.813 0-.234-.187-.36-.375-.36-.125 0-.437.048-.547.5L.437 2.485c0 .063-.03.157-.03.235 0 .219.171.36.374.36.422 0 .516-.329.61-.72Zm0 0"/>
    </symbol>
    <symbol overflow="visible" id="c">
      <path style="stroke:none" d="M.453 1.219c-.078.343-.11.406-.547.406-.11 0-.218 0-.218.188 0 .078.046.125.124.125.266 0 .563-.032.829-.032.343 0 .671.032 1 .032.046 0 .171 0 .171-.204 0-.109-.093-.109-.234-.109-.5 0-.5-.063-.5-.156 0-.125.422-1.75.484-2 .125.297.407.64.922.64 1.157 0 2.407-1.453 2.407-2.921 0-.938-.579-1.594-1.329-1.594-.5 0-.984.36-1.312.75-.094-.547-.531-.75-.89-.75-.47 0-.657.39-.735.562-.188.344-.313.938-.313.969 0 .11.094.11.11.11.11 0 .11-.016.172-.235.172-.703.375-1.188.734-1.188.172 0 .313.079.313.454 0 .234-.032.343-.079.515Zm1.75-4.328c.063-.266.344-.547.516-.704.36-.296.64-.374.812-.374.39 0 .64.343.64.937 0 .594-.327 1.734-.515 2.11-.344.702-.812 1.03-1.187 1.03-.656 0-.781-.828-.781-.89 0-.016 0-.031.03-.156Zm0 0"/>
    </symbol>
    <symbol overflow="visible" id="m">
      <path style="stroke:none" d="M4.5-4.297c0-.047-.031-.094-.094-.094-.11 0-.515.391-.672.688-.218-.547-.609-.703-.937-.703-1.172 0-2.39 1.468-2.39 2.922C.406-.516.983.109 1.718.109c.422 0 .812-.234 1.172-.593-.094.343-.422 1.687-.454 1.78-.078.282-.156.313-.718.329-.125 0-.219 0-.219.203 0 0 0 .11.125.11.313 0 .672-.032 1-.032.328 0 .688.032 1.031.032.047 0 .172 0 .172-.204 0-.109-.094-.109-.265-.109-.47 0-.47-.063-.47-.156 0-.078.016-.14.032-.219ZM1.75-.109c-.61 0-.64-.766-.64-.938 0-.484.28-1.562.452-1.984.313-.735.829-1.156 1.235-1.156.656 0 .797.812.797.875 0 .062-.547 2.25-.578 2.28-.157.282-.72.923-1.266.923Zm0 0"/>
    </symbol>
    <symbol overflow="visible" id="d">
      <path style="stroke:none" d="M1.828-1.156c.61-.703 1.11-1.157 1.828-1.797.86-.75 1.235-1.11 1.438-1.328 1-.985 1.5-1.813 1.5-1.922 0-.125-.11-.125-.14-.125-.095 0-.126.062-.204.156-.36.625-.703.922-1.078.922-.297 0-.453-.125-.719-.469-.312-.36-.547-.61-.969-.61-1.046 0-1.671 1.313-1.671 1.61 0 .047.015.125.14.125.11 0 .125-.047.172-.156.234-.578.938-.672 1.203-.672.297 0 .594.094.89.234.548.22.766.22.923.22.093 0 .156 0 .218-.016-.468.562-1.25 1.25-1.89 1.843L2.016-1.812C1.14-.922.609-.079.609.03c0 .078.079.11.172.11C.86.14.875.125.97-.047c.234-.36.687-.89 1.219-.89.312 0 .453.109.734.468.281.313.515.61.984.61C5.312.14 6.11-1.672 6.11-2.016c0-.046-.015-.14-.156-.14-.11 0-.125.062-.172.203C5.47-1.11 4.625-.766 4.063-.766c-.297 0-.594-.093-.891-.218-.578-.235-.735-.235-.922-.235-.14 0-.297 0-.422.063Zm0 0"/>
    </symbol>
    <symbol overflow="visible" id="e">
      <path style="stroke:none" d="M1.828-1.156c.61-.703 1.11-1.157 1.828-1.797.86-.75 1.235-1.11 1.438-1.328 1-.985 1.5-1.813 1.5-1.922 0-.125-.11-.125-.14-.125-.095 0-.126.062-.204.156-.36.625-.703.922-1.078.922-.297 0-.453-.125-.719-.469-.312-.36-.547-.61-.969-.61-1.046 0-1.671 1.313-1.671 1.61 0 .047.015.125.14.125.11 0 .125-.047.172-.156.234-.578.938-.672 1.203-.672.297 0 .594.094.89.234.548.22.766.22.923.22.093 0 .156 0 .218-.016-.468.562-1.25 1.25-1.89 1.843L2.016-1.812C1.14-.922.609-.079.609.03c0 .078.079.11.172.11C.86.14.875.125.97-.047c.234-.36.687-.89 1.219-.89.312 0 .453.109.734.468.281.313.515.61.984.61C5.312.14 6.11-1.672 6.11-2.016c0-.046-.015-.14-.156-.14-.11 0-.125.062-.172.203C5.47-1.11 4.625-.766 4.063-.766c-.297 0-.594-.093-.891-.218-.578-.235-.735-.235-.922-.235-.14 0-.297 0-.422.063Zm0 0"/>
    </symbol>
    <symbol overflow="visible" id="f">
      <path style="stroke:none" d="M5.719-3.313h3.968c.204 0 .454 0 .454-.265 0-.266-.25-.266-.454-.266H5.72v-3.953c0-.203 0-.469-.25-.469-.282 0-.282.25-.282.47v3.952H1.235c-.203 0-.453 0-.453.266 0 .265.235.265.453.265h3.954V.642c0 .203 0 .468.265.468.266 0 .266-.25.266-.468Zm0 0"/>
    </symbol>
    <symbol overflow="visible" id="g">
      <path style="stroke:none" d="M6.64-3.625c0-1.39-.78-2.703-2.312-2.703-1.875 0-3.75 2.047-3.75 4.094C.578-.984 1.344.14 2.813.14c.89 0 1.953-.344 2.968-1.204.203.797.64 1.204 1.266 1.204.766 0 1.156-.797 1.156-.985 0-.125-.094-.125-.14-.125-.11 0-.126.031-.172.156-.125.36-.454.672-.813.672-.437 0-.437-.921-.437-1.796C8.109-3.688 8.453-5.5 8.453-5.517c0-.125-.125-.125-.156-.125-.14 0-.156.047-.203.313A8.96 8.96 0 0 1 6.64-2.406Zm-.906 2.219C4.47-.266 3.344-.141 2.844-.141c-1.016 0-1.313-.906-1.313-1.578 0-.625.313-2.078.766-2.875.594-1 1.39-1.437 2.031-1.437 1.39 0 1.39 1.812 1.39 3.015 0 .36-.015.735-.015 1.094 0 .281.016.36.031.516Zm0 0"/>
    </symbol>
    <symbol overflow="visible" id="h">
      <path style="stroke:none" d="M2.938-6.375c0-.25 0-.266-.235-.266C2.078-6 1.203-6 .891-6v.313c.203 0 .78 0 1.296-.266v5.172c0 .36-.03.469-.921.469H.953V0c.344-.031 1.203-.031 1.61-.031.39 0 1.265 0 1.609.031v-.313h-.313c-.906 0-.921-.109-.921-.468Zm0 0"/>
    </symbol>
    <symbol overflow="visible" id="r">
      <path style="stroke:none" d="M4.578-3.188c0-.796-.047-1.593-.39-2.328C3.733-6.484 2.905-6.64 2.5-6.64c-.61 0-1.328.266-1.75 1.188-.313.687-.36 1.469-.36 2.266 0 .75.032 1.64.454 2.406a1.83 1.83 0 0 0 1.64 1c.532 0 1.297-.203 1.735-1.157.312-.687.36-1.468.36-2.25ZM2.484 0c-.39 0-.984-.25-1.156-1.203-.11-.594-.11-1.516-.11-2.11 0-.64 0-1.296.079-1.828.187-1.187.937-1.28 1.187-1.28.329 0 .985.187 1.172 1.171.11.563.11 1.313.11 1.938 0 .75 0 1.421-.11 2.062C3.5-.297 2.937 0 2.484 0Zm0 0"/>
    </symbol>
    <symbol overflow="visible" id="i">
      <path style="stroke:none" d="M6.188-9.984c-.11-.204-.141-.25-.329-.25-.218 0-.25.046-.343.25L.719-.281a.335.335 0 0 0-.063.187C.656-.016.672 0 .97 0h9.765c.282 0 .297-.016.297-.094a.335.335 0 0 0-.062-.187Zm-.782 1.062L9.328-.984H1.5Zm0 0"/>
    </symbol>
    <symbol overflow="visible" id="j">
      <path style="stroke:none" d="M.453 1.219c-.078.343-.11.406-.547.406-.11 0-.218 0-.218.188 0 .078.046.125.124.125.266 0 .563-.032.829-.032.343 0 .671.032 1 .032.046 0 .171 0 .171-.204 0-.109-.093-.109-.234-.109-.5 0-.5-.063-.5-.156 0-.125.422-1.75.484-2 .125.297.407.64.922.64 1.157 0 2.407-1.453 2.407-2.921 0-.938-.579-1.594-1.329-1.594-.5 0-.984.36-1.312.75-.094-.547-.531-.75-.89-.75-.47 0-.657.39-.735.562-.188.344-.313.938-.313.969 0 .11.094.11.11.11.11 0 .11-.016.172-.235.172-.703.375-1.188.734-1.188.172 0 .313.079.313.454 0 .234-.032.343-.079.515Zm1.75-4.328c.063-.266.344-.547.516-.704.36-.296.64-.374.812-.374.39 0 .64.343.64.937 0 .594-.327 1.734-.515 2.11-.344.702-.812 1.03-1.187 1.03-.656 0-.781-.828-.781-.89 0-.016 0-.031.03-.156Zm0 0"/>
    </symbol>
    <symbol overflow="visible" id="k">
      <path style="stroke:none" d="M2.031-.016c0-.656-.25-1.046-.64-1.046a.517.517 0 0 0-.532.53c0 .266.204.532.532.532a.58.58 0 0 0 .343-.125c.032-.031.047-.031.047-.031.016 0 .016 0 .016.14 0 .75-.344 1.344-.672 1.672-.11.11-.11.125-.11.157 0 .078.048.109.094.109.11 0 .922-.766.922-1.938Zm0 0"/>
    </symbol>
    <symbol overflow="visible" id="l">
      <path style="stroke:none" d="M4.5-4.297c0-.047-.031-.094-.094-.094-.11 0-.515.391-.672.688-.218-.547-.609-.703-.937-.703-1.172 0-2.39 1.468-2.39 2.922C.406-.516.983.109 1.718.109c.422 0 .812-.234 1.172-.593-.094.343-.422 1.687-.454 1.78-.078.282-.156.313-.718.329-.125 0-.219 0-.219.203 0 0 0 .11.125.11.313 0 .672-.032 1-.032.328 0 .688.032 1.031.032.047 0 .172 0 .172-.204 0-.109-.094-.109-.265-.109-.47 0-.47-.063-.47-.156 0-.078.016-.14.032-.219ZM1.75-.109c-.61 0-.64-.766-.64-.938 0-.484.28-1.562.452-1.984.313-.735.829-1.156 1.235-1.156.656 0 .797.812.797.875 0 .062-.547 2.25-.578 2.28-.157.282-.72.923-1.266.923Zm0 0"/>
    </symbol>
    <symbol overflow="visible" id="n">
      <path style="stroke:none" d="M6.188-9.984c-.11-.204-.141-.25-.329-.25-.218 0-.25.046-.343.25L.719-.281a.335.335 0 0 0-.063.187C.656-.016.672 0 .97 0h9.765c.282 0 .297-.016.297-.094a.335.335 0 0 0-.062-.187Zm-.782 1.062L9.328-.984H1.5Zm0 0"/>
    </symbol>
    <symbol overflow="visible" id="o">
      <path style="stroke:none" d="M.453 1.219c-.078.343-.11.406-.547.406-.11 0-.218 0-.218.188 0 .078.046.125.124.125.266 0 .563-.032.829-.032.343 0 .671.032 1 .032.046 0 .171 0 .171-.204 0-.109-.093-.109-.234-.109-.5 0-.5-.063-.5-.156 0-.125.422-1.75.484-2 .125.297.407.64.922.64 1.157 0 2.407-1.453 2.407-2.921 0-.938-.579-1.594-1.329-1.594-.5 0-.984.36-1.312.75-.094-.547-.531-.75-.89-.75-.47 0-.657.39-.735.562-.188.344-.313.938-.313.969 0 .11.094.11.11.11.11 0 .11-.016.172-.235.172-.703.375-1.188.734-1.188.172 0 .313.079.313.454 0 .234-.032.343-.079.515Zm1.75-4.328c.063-.266.344-.547.516-.704.36-.296.64-.374.812-.374.39 0 .64.343.64.937 0 .594-.327 1.734-.515 2.11-.344.702-.812 1.03-1.187 1.03-.656 0-.781-.828-.781-.89 0-.016 0-.031.03-.156Zm0 0"/>
    </symbol>
    <symbol overflow="visible" id="p">
      <path style="stroke:none" d="M2.031-.016c0-.656-.25-1.046-.64-1.046a.517.517 0 0 0-.532.53c0 .266.204.532.532.532a.58.58 0 0 0 .343-.125c.032-.031.047-.031.047-.031.016 0 .016 0 .016.14 0 .75-.344 1.344-.672 1.672-.11.11-.11.125-.11.157 0 .078.048.109.094.109.11 0 .922-.766.922-1.938Zm0 0"/>
    </symbol>
    <symbol overflow="visible" id="q">
      <path style="stroke:none" d="M4.5-4.297c0-.047-.031-.094-.094-.094-.11 0-.515.391-.672.688-.218-.547-.609-.703-.937-.703-1.172 0-2.39 1.468-2.39 2.922C.406-.516.983.109 1.718.109c.422 0 .812-.234 1.172-.593-.094.343-.422 1.687-.454 1.78-.078.282-.156.313-.718.329-.125 0-.219 0-.219.203 0 0 0 .11.125.11.313 0 .672-.032 1-.032.328 0 .688.032 1.031.032.047 0 .172 0 .172-.204 0-.109-.094-.109-.265-.109-.47 0-.47-.063-.47-.156 0-.078.016-.14.032-.219ZM1.75-.109c-.61 0-.64-.766-.64-.938 0-.484.28-1.562.452-1.984.313-.735.829-1.156 1.235-1.156.656 0 .797.812.797.875 0 .062-.547 2.25-.578 2.28-.157.282-.72.923-1.266.923Zm0 0"/>
    </symbol>
  </defs>
  <path style="stroke:none;fill-rule:evenodd;fill:#fff;fill-opacity:1" d="M147.488 177.02 337 177V1H178.29Zm0 0L1 176.883v-176L178.3.94Zm0 0"/>
  <path style="stroke:none;fill-rule:evenodd;fill:#00aba4;fill-opacity:.3" d="M295.402 177.004c26.832-22.809 36.59-59.934 24.438-92.988C307.688 50.96 276.207 28.996 240.992 29c-35.219.004-66.695 21.977-78.84 55.031-12.144 33.059-2.379 70.184 24.461 92.985"/>
  <path style="stroke:none;fill-rule:evenodd;fill:#00aba4;fill-opacity:.3" d="M297 117c2.21-30.93-21.07-57.79-52-60-30.93-2.21-57.79 21.07-60 52-2.21 30.93 21.07 57.79 52 60 30.93 2.21 57.79-21.07 60-52Zm0 0"/>
  <path style="stroke:none;fill-rule:evenodd;fill:#00aba4;fill-opacity:.3" d="M269 113c0-15.465-12.535-28-28-28s-28 12.535-28 28 12.535 28 28 28 28-12.535 28-28Zm0 0"/>
  <path style="stroke:none;fill-rule:evenodd;fill:#003d73;fill-opacity:.3" d="M1 110.613c12.621 39.414 52.07 63.766 92.96 57.38C134.853 161.608 165 126.386 165 85c0-41.387-30.148-76.61-71.04-82.992C53.07-4.38 13.622 19.973 1 59.387"/>
  <path style="stroke:none;fill-rule:evenodd;fill:#003d73;fill-opacity:.3" d="M137 89c2.21-30.93-21.07-57.79-52-60-30.93-2.21-57.79 21.07-60 52-2.21 30.93 21.07 57.79 52 60 30.93 2.21 57.79-21.07 60-52Zm0 0"/>
  <path style="stroke:none;fill-rule:evenodd;fill:#003d73;fill-opacity:.3" d="M109 85c0-15.465-12.535-28-28-28S53 69.535 53 85s12.535 28 28 28 28-12.535 28-28Zm0 0"/>
  <path style="fill:none;stroke-width:.4;stroke-linecap:round;stroke-linejoin:round;stroke:#000;stroke-opacity:1;stroke-miterlimit:10" d="M2512 3752h0" transform="matrix(1 0 0 -1 -2351 3921)"/>
  <path style="stroke:none;fill-rule:evenodd;fill:#fff;fill-opacity:1" d="M78.5 79.5h5v-5h-5Zm0 0"/>
  <path style="stroke:none;fill-rule:evenodd;fill:#e2007a;fill-opacity:1" d="M78 80h6v-6h-6Zm1-1h4v-4h-4Zm0 0"/>
  <path style="stroke:none;fill-rule:evenodd;fill:#fff;fill-opacity:1" d="M238.5 123.5h5v-5h-5Zm0 0"/>
  <path style="stroke:none;fill-rule:evenodd;fill:#e2007a;fill-opacity:1" d="M238 124h6v-6h-6Zm1-1h4v-4h-4Zm0 0"/>
  <use xlink:href="#a" x="59.123" y="77.001" style="fill:#e2007a;fill-opacity:1"/>
  <use xlink:href="#b" x="58.019" y="77.001" style="fill:#e2007a;fill-opacity:1"/>
  <use xlink:href="#c" x="66.471" y="79.153" style="fill:#e2007a;fill-opacity:1"/>
  <use xlink:href="#d" x="50.318" y="46.35" style="fill:#000;fill-opacity:1"/>
  <use xlink:href="#e" x="258.976" y="104.281" style="fill:#000;fill-opacity:1"/>
  <use xlink:href="#f" x="269.329" y="104.281" style="fill:#000;fill-opacity:1"/>
  <use xlink:href="#g" x="283.442" y="104.281" style="fill:#000;fill-opacity:1"/>
  <use xlink:href="#h" x="292.377" y="106.433" style="fill:#000;fill-opacity:1"/>
  <use xlink:href="#i" x="297.856" y="104.281" style="fill:#e2007a;fill-opacity:1"/>
  <g style="fill:#e2007a;fill-opacity:1">
    <use xlink:href="#j" x="309.562" y="106.433"/>
    <use xlink:href="#k" x="314.573" y="106.433"/>
    <use xlink:href="#l" x="317.332" y="106.433"/>
  </g>
  <path style="stroke:none;fill-rule:evenodd;fill:#00aba4;fill-opacity:1" d="M244 113c0-4-6-4-6 0s6 4 6 0Zm0 0"/>
  <use xlink:href="#a" x="235.226" y="137.001" style="fill:#e2007a;fill-opacity:1"/>
  <use xlink:href="#b" x="234.123" y="137.001" style="fill:#e2007a;fill-opacity:1"/>
  <use xlink:href="#m" x="242.575" y="139.153" style="fill:#e2007a;fill-opacity:1"/>
  <path style="stroke:none;fill-rule:evenodd;fill:#003d73;fill-opacity:1" d="M84 85c0-4-6-4-6 0s6 4 6 0Zm0 0"/>
  <path style="fill:none;stroke-width:1.2;stroke-linecap:butt;stroke-linejoin:round;stroke:#e2007a;stroke-opacity:1;stroke-dasharray:4;stroke-miterlimit:10" d="m2351.922 3881.223 336.125-92.434" transform="matrix(1 0 0 -1 -2351 3921)"/>
  <path style="fill:none;stroke-width:1.2;stroke-linecap:butt;stroke-linejoin:round;stroke:#e2007a;stroke-opacity:1;stroke-miterlimit:10" d="m2432 3844 160-44" transform="matrix(1 0 0 -1 -2351 3921)"/>
  <path style="fill-rule:evenodd;fill:#e2007a;fill-opacity:1;stroke-width:1.2;stroke-linecap:butt;stroke-linejoin:round;stroke:#e2007a;stroke-opacity:1;stroke-miterlimit:10" d="m2592 3800-6.133 4.105-1.234-4.496Zm0 0" transform="matrix(1 0 0 -1 -2351 3921)"/>
  <path style="fill:none;stroke-width:1.2;stroke-linecap:butt;stroke-linejoin:round;stroke:#002546;stroke-opacity:1;stroke-miterlimit:10" d="m2498.484 3743.977 30.817 176.082" transform="matrix(1 0 0 -1 -2351 3921)"/>
  <path style="stroke:none;fill-rule:evenodd;fill:#003e5c;fill-opacity:1" d="M160.54 87.5h6v-6h-6Zm0 0"/>
  <use xlink:href="#n" x="120.606" y="109.001" style="fill:#e2007a;fill-opacity:1"/>
  <g style="fill:#e2007a;fill-opacity:1">
    <use xlink:href="#o" x="132.311" y="111.153"/>
    <use xlink:href="#p" x="137.323" y="111.153"/>
    <use xlink:href="#q" x="140.082" y="111.153"/>
  </g>
  <use xlink:href="#e" x="167.745" y="77.471" style="fill:#000;fill-opacity:1"/>
  <use xlink:href="#f" x="178.099" y="77.471" style="fill:#000;fill-opacity:1"/>
  <use xlink:href="#g" x="192.212" y="77.471" style="fill:#000;fill-opacity:1"/>
  <use xlink:href="#r" x="201.147" y="79.623" style="fill:#000;fill-opacity:1"/>
  <use xlink:href="#i" x="206.625" y="77.471" style="fill:#e2007a;fill-opacity:1"/>
  <g style="fill:#e2007a;fill-opacity:1">
    <use xlink:href="#j" x="218.332" y="79.623"/>
    <use xlink:href="#k" x="223.343" y="79.623"/>
    <use xlink:href="#l" x="226.102" y="79.623"/>
  </g>
  <path style="stroke:none;fill-rule:evenodd;fill:#003e5c;fill-opacity:1" d="M251.89 112.621h6v-6h-6ZM56.898 54.352c0-4-6-4-6 0s6 4 6 0Zm0 0"/>
</svg>
