<?xml version="1.0" encoding="UTF-8"?>
<svg xmlns="http://www.w3.org/2000/svg" xmlns:xlink="http://www.w3.org/1999/xlink" width="257pt" height="113pt" viewBox="0 0 257 113" version="1.1">
<g id="surface1">
<path style="fill:none;stroke-width:0.4;stroke-linecap:butt;stroke-linejoin:round;stroke:rgb(0%,0%,0%);stroke-opacity:1;stroke-miterlimit:10;" d="M 64 736.003906 L 64 624 L 176 624 L 176 736.003906 Z M 64 736.003906 " transform="matrix(1,0,0,-1,-63,737)"/>
<path style="fill:none;stroke-width:0.4;stroke-linecap:butt;stroke-linejoin:round;stroke:rgb(0%,0%,0%);stroke-opacity:1;stroke-miterlimit:10;" d="M 80 720 L 80 640 L 160 640 L 160 720 Z M 80 720 " transform="matrix(1,0,0,-1,-63,737)"/>
<path style="fill:none;stroke-width:0.4;stroke-linecap:butt;stroke-linejoin:round;stroke:rgb(0%,0%,0%);stroke-opacity:1;stroke-miterlimit:10;" d="M 96 704 L 96 656 L 144 656 L 144 704 Z M 96 704 " transform="matrix(1,0,0,-1,-63,737)"/>
<path style="fill:none;stroke-width:0.4;stroke-linecap:butt;stroke-linejoin:round;stroke:rgb(0%,0%,0%);stroke-opacity:1;stroke-miterlimit:10;" d="M 112 688 L 112 672 L 128 672 L 128 688 Z M 112 688 " transform="matrix(1,0,0,-1,-63,737)"/>
<path style="fill:none;stroke-width:0.4;stroke-linecap:butt;stroke-linejoin:round;stroke:rgb(0%,0%,0%);stroke-opacity:1;stroke-miterlimit:10;" d="M 208 736 L 208 624 L 320 624 L 320 736 Z M 208 736 " transform="matrix(1,0,0,-1,-63,737)"/>
<path style="fill:none;stroke-width:0.4;stroke-linecap:butt;stroke-linejoin:round;stroke:rgb(0%,0%,0%);stroke-opacity:1;stroke-miterlimit:10;" d="M 224 720 L 224 640 L 304 640 L 304 720 Z M 224 720 " transform="matrix(1,0,0,-1,-63,737)"/>
<path style="fill:none;stroke-width:0.4;stroke-linecap:butt;stroke-linejoin:round;stroke:rgb(0%,0%,0%);stroke-opacity:1;stroke-miterlimit:10;" d="M 240 704 L 240 656 L 288 656 L 288 704 Z M 240 704 " transform="matrix(1,0,0,-1,-63,737)"/>
<path style="fill:none;stroke-width:0.4;stroke-linecap:butt;stroke-linejoin:round;stroke:rgb(0%,0%,0%);stroke-opacity:1;stroke-miterlimit:10;" d="M 256 688 L 256 672 L 272 672 L 272 688 Z M 256 688 " transform="matrix(1,0,0,-1,-63,737)"/>
</g>
</svg>
