<?xml version="1.0" encoding="UTF-8"?>
<svg xmlns="http://www.w3.org/2000/svg" xmlns:xlink="http://www.w3.org/1999/xlink" width="290pt" height="178pt" viewBox="0 0 290 178" version="1.1">
<g id="surface1">
<path style="fill:none;stroke-width:0.8;stroke-linecap:butt;stroke-linejoin:round;stroke:rgb(0%,14.5%,27.4%);stroke-opacity:1;stroke-miterlimit:10;" d="M 2512 3816 C 2512 3824.835938 2504.835938 3832 2496 3832 C 2487.164062 3832 2480 3824.835938 2480 3816 C 2480 3807.164062 2487.164062 3800 2496 3800 C 2504.835938 3800 2512 3807.164062 2512 3816 Z M 2512 3816 " transform="matrix(1,0,0,-1,-2479,3857)"/>
<path style="fill:none;stroke-width:0.8;stroke-linecap:butt;stroke-linejoin:round;stroke:rgb(0%,14.5%,27.4%);stroke-opacity:1;stroke-miterlimit:10;" d="M 2512 3768 C 2512 3776.835938 2504.835938 3784 2496 3784 C 2487.164062 3784 2480 3776.835938 2480 3768 C 2480 3759.164062 2487.164062 3752 2496 3752 C 2504.835938 3752 2512 3759.164062 2512 3768 Z M 2512 3768 " transform="matrix(1,0,0,-1,-2479,3857)"/>
<path style="fill:none;stroke-width:0.8;stroke-linecap:butt;stroke-linejoin:round;stroke:rgb(0%,14.5%,27.4%);stroke-opacity:1;stroke-miterlimit:10;" d="M 2512 3720 C 2512 3728.835938 2504.835938 3736 2496 3736 C 2487.164062 3736 2480 3728.835938 2480 3720 C 2480 3711.164062 2487.164062 3704 2496 3704 C 2504.835938 3704 2512 3711.164062 2512 3720 Z M 2512 3720 " transform="matrix(1,0,0,-1,-2479,3857)"/>
<path style="fill:none;stroke-width:0.8;stroke-linecap:butt;stroke-linejoin:round;stroke:rgb(0%,14.5%,27.4%);stroke-opacity:1;stroke-miterlimit:10;" d="M 2768 3768 C 2768 3776.835938 2760.835938 3784 2752 3784 C 2743.164062 3784 2736 3776.835938 2736 3768 C 2736 3759.164062 2743.164062 3752 2752 3752 C 2760.835938 3752 2768 3759.164062 2768 3768 Z M 2768 3768 " transform="matrix(1,0,0,-1,-2479,3857)"/>
<path style="fill:none;stroke-width:0.4;stroke-linecap:butt;stroke-linejoin:round;stroke:rgb(29.4%,29.4%,29%);stroke-opacity:1;stroke-miterlimit:10;" d="M 2512 3816 L 2544 3840 " transform="matrix(1,0,0,-1,-2479,3857)"/>
<path style="fill:none;stroke-width:0.4;stroke-linecap:butt;stroke-linejoin:round;stroke:rgb(29.4%,29.4%,29%);stroke-opacity:1;stroke-miterlimit:10;" d="M 2512 3816 L 2544 3792 " transform="matrix(1,0,0,-1,-2479,3857)"/>
<path style="fill:none;stroke-width:0.4;stroke-linecap:butt;stroke-linejoin:round;stroke:rgb(29.4%,29.4%,29%);stroke-opacity:1;stroke-miterlimit:10;" d="M 2512 3816 L 2544 3744 " transform="matrix(1,0,0,-1,-2479,3857)"/>
<path style="fill:none;stroke-width:0.4;stroke-linecap:butt;stroke-linejoin:round;stroke:rgb(29.4%,29.4%,29%);stroke-opacity:1;stroke-miterlimit:10;" d="M 2512 3816 L 2544 3696 " transform="matrix(1,0,0,-1,-2479,3857)"/>
<path style="fill:none;stroke-width:0.4;stroke-linecap:butt;stroke-linejoin:round;stroke:rgb(29.4%,29.4%,29%);stroke-opacity:1;stroke-miterlimit:10;" d="M 2512 3768 L 2544 3840 " transform="matrix(1,0,0,-1,-2479,3857)"/>
<path style="fill:none;stroke-width:0.4;stroke-linecap:butt;stroke-linejoin:round;stroke:rgb(29.4%,29.4%,29%);stroke-opacity:1;stroke-miterlimit:10;" d="M 2512 3768 L 2544 3792 " transform="matrix(1,0,0,-1,-2479,3857)"/>
<path style="fill:none;stroke-width:0.4;stroke-linecap:butt;stroke-linejoin:round;stroke:rgb(29.4%,29.4%,29%);stroke-opacity:1;stroke-miterlimit:10;" d="M 2512 3768 L 2544 3744 " transform="matrix(1,0,0,-1,-2479,3857)"/>
<path style="fill:none;stroke-width:0.4;stroke-linecap:butt;stroke-linejoin:round;stroke:rgb(29.4%,29.4%,29%);stroke-opacity:1;stroke-miterlimit:10;" d="M 2512 3768 L 2544 3696 " transform="matrix(1,0,0,-1,-2479,3857)"/>
<path style="fill:none;stroke-width:0.4;stroke-linecap:butt;stroke-linejoin:round;stroke:rgb(29.4%,29.4%,29%);stroke-opacity:1;stroke-miterlimit:10;" d="M 2512 3720 L 2544 3840 " transform="matrix(1,0,0,-1,-2479,3857)"/>
<path style="fill:none;stroke-width:0.4;stroke-linecap:butt;stroke-linejoin:round;stroke:rgb(29.4%,29.4%,29%);stroke-opacity:1;stroke-miterlimit:10;" d="M 2512 3720 L 2544 3792 " transform="matrix(1,0,0,-1,-2479,3857)"/>
<path style="fill:none;stroke-width:0.4;stroke-linecap:butt;stroke-linejoin:round;stroke:rgb(29.4%,29.4%,29%);stroke-opacity:1;stroke-miterlimit:10;" d="M 2512 3720 L 2544 3744 " transform="matrix(1,0,0,-1,-2479,3857)"/>
<path style="fill:none;stroke-width:0.4;stroke-linecap:butt;stroke-linejoin:round;stroke:rgb(29.4%,29.4%,29%);stroke-opacity:1;stroke-miterlimit:10;" d="M 2512 3720 L 2544 3696 " transform="matrix(1,0,0,-1,-2479,3857)"/>
<path style="fill:none;stroke-width:0.4;stroke-linecap:butt;stroke-linejoin:round;stroke:rgb(29.4%,29.4%,29%);stroke-opacity:1;stroke-miterlimit:10;" d="M 2704 3840 L 2736 3768 " transform="matrix(1,0,0,-1,-2479,3857)"/>
<path style="fill:none;stroke-width:0.4;stroke-linecap:butt;stroke-linejoin:round;stroke:rgb(29.4%,29.4%,29%);stroke-opacity:1;stroke-miterlimit:10;" d="M 2704 3792 L 2736 3768 " transform="matrix(1,0,0,-1,-2479,3857)"/>
<path style="fill:none;stroke-width:0.4;stroke-linecap:butt;stroke-linejoin:round;stroke:rgb(29.4%,29.4%,29%);stroke-opacity:1;stroke-miterlimit:10;" d="M 2704 3744 L 2736 3768 " transform="matrix(1,0,0,-1,-2479,3857)"/>
<path style="fill:none;stroke-width:0.4;stroke-linecap:butt;stroke-linejoin:round;stroke:rgb(29.4%,29.4%,29%);stroke-opacity:1;stroke-miterlimit:10;" d="M 2704 3696 L 2736 3768 " transform="matrix(1,0,0,-1,-2479,3857)"/>
<path style="fill:none;stroke-width:0.8;stroke-linecap:butt;stroke-linejoin:round;stroke:rgb(0%,14.5%,27.4%);stroke-opacity:1;stroke-miterlimit:10;" d="M 2576 3840 C 2576 3848.835938 2568.835938 3856 2560 3856 C 2551.164062 3856 2544 3848.835938 2544 3840 C 2544 3831.164062 2551.164062 3824 2560 3824 C 2568.835938 3824 2576 3831.164062 2576 3840 Z M 2576 3840 " transform="matrix(1,0,0,-1,-2479,3857)"/>
<path style="fill:none;stroke-width:0.8;stroke-linecap:butt;stroke-linejoin:round;stroke:rgb(0%,14.5%,27.4%);stroke-opacity:1;stroke-miterlimit:10;" d="M 2576 3792 C 2576 3800.835938 2568.835938 3808 2560 3808 C 2551.164062 3808 2544 3800.835938 2544 3792 C 2544 3783.164062 2551.164062 3776 2560 3776 C 2568.835938 3776 2576 3783.164062 2576 3792 Z M 2576 3792 " transform="matrix(1,0,0,-1,-2479,3857)"/>
<path style="fill:none;stroke-width:0.8;stroke-linecap:butt;stroke-linejoin:round;stroke:rgb(0%,14.5%,27.4%);stroke-opacity:1;stroke-miterlimit:10;" d="M 2576 3744 C 2576 3752.835938 2568.835938 3760 2560 3760 C 2551.164062 3760 2544 3752.835938 2544 3744 C 2544 3735.164062 2551.164062 3728 2560 3728 C 2568.835938 3728 2576 3735.164062 2576 3744 Z M 2576 3744 " transform="matrix(1,0,0,-1,-2479,3857)"/>
<path style="fill:none;stroke-width:0.8;stroke-linecap:butt;stroke-linejoin:round;stroke:rgb(0%,14.5%,27.4%);stroke-opacity:1;stroke-miterlimit:10;" d="M 2576 3696 C 2576 3704.835938 2568.835938 3712 2560 3712 C 2551.164062 3712 2544 3704.835938 2544 3696 C 2544 3687.164062 2551.164062 3680 2560 3680 C 2568.835938 3680 2576 3687.164062 2576 3696 Z M 2576 3696 " transform="matrix(1,0,0,-1,-2479,3857)"/>
<path style="fill:none;stroke-width:0.8;stroke-linecap:butt;stroke-linejoin:round;stroke:rgb(0%,14.5%,27.4%);stroke-opacity:1;stroke-miterlimit:10;" d="M 2640 3840 C 2640 3848.835938 2632.835938 3856 2624 3856 C 2615.164062 3856 2608 3848.835938 2608 3840 C 2608 3831.164062 2615.164062 3824 2624 3824 C 2632.835938 3824 2640 3831.164062 2640 3840 Z M 2640 3840 " transform="matrix(1,0,0,-1,-2479,3857)"/>
<path style="fill:none;stroke-width:0.8;stroke-linecap:butt;stroke-linejoin:round;stroke:rgb(0%,14.5%,27.4%);stroke-opacity:1;stroke-miterlimit:10;" d="M 2640 3792 C 2640 3800.835938 2632.835938 3808 2624 3808 C 2615.164062 3808 2608 3800.835938 2608 3792 C 2608 3783.164062 2615.164062 3776 2624 3776 C 2632.835938 3776 2640 3783.164062 2640 3792 Z M 2640 3792 " transform="matrix(1,0,0,-1,-2479,3857)"/>
<path style="fill:none;stroke-width:0.8;stroke-linecap:butt;stroke-linejoin:round;stroke:rgb(0%,14.5%,27.4%);stroke-opacity:1;stroke-miterlimit:10;" d="M 2640 3744 C 2640 3752.835938 2632.835938 3760 2624 3760 C 2615.164062 3760 2608 3752.835938 2608 3744 C 2608 3735.164062 2615.164062 3728 2624 3728 C 2632.835938 3728 2640 3735.164062 2640 3744 Z M 2640 3744 " transform="matrix(1,0,0,-1,-2479,3857)"/>
<path style="fill:none;stroke-width:0.8;stroke-linecap:butt;stroke-linejoin:round;stroke:rgb(0%,14.5%,27.4%);stroke-opacity:1;stroke-miterlimit:10;" d="M 2640 3696 C 2640 3704.835938 2632.835938 3712 2624 3712 C 2615.164062 3712 2608 3704.835938 2608 3696 C 2608 3687.164062 2615.164062 3680 2624 3680 C 2632.835938 3680 2640 3687.164062 2640 3696 Z M 2640 3696 " transform="matrix(1,0,0,-1,-2479,3857)"/>
<path style="fill:none;stroke-width:0.8;stroke-linecap:butt;stroke-linejoin:round;stroke:rgb(0%,14.5%,27.4%);stroke-opacity:1;stroke-miterlimit:10;" d="M 2704 3840 C 2704 3848.835938 2696.835938 3856 2688 3856 C 2679.164062 3856 2672 3848.835938 2672 3840 C 2672 3831.164062 2679.164062 3824 2688 3824 C 2696.835938 3824 2704 3831.164062 2704 3840 Z M 2704 3840 " transform="matrix(1,0,0,-1,-2479,3857)"/>
<path style="fill:none;stroke-width:0.8;stroke-linecap:butt;stroke-linejoin:round;stroke:rgb(0%,14.5%,27.4%);stroke-opacity:1;stroke-miterlimit:10;" d="M 2704 3792 C 2704 3800.835938 2696.835938 3808 2688 3808 C 2679.164062 3808 2672 3800.835938 2672 3792 C 2672 3783.164062 2679.164062 3776 2688 3776 C 2696.835938 3776 2704 3783.164062 2704 3792 Z M 2704 3792 " transform="matrix(1,0,0,-1,-2479,3857)"/>
<path style="fill:none;stroke-width:0.8;stroke-linecap:butt;stroke-linejoin:round;stroke:rgb(0%,14.5%,27.4%);stroke-opacity:1;stroke-miterlimit:10;" d="M 2704 3744 C 2704 3752.835938 2696.835938 3760 2688 3760 C 2679.164062 3760 2672 3752.835938 2672 3744 C 2672 3735.164062 2679.164062 3728 2688 3728 C 2696.835938 3728 2704 3735.164062 2704 3744 Z M 2704 3744 " transform="matrix(1,0,0,-1,-2479,3857)"/>
<path style="fill:none;stroke-width:0.8;stroke-linecap:butt;stroke-linejoin:round;stroke:rgb(0%,14.5%,27.4%);stroke-opacity:1;stroke-miterlimit:10;" d="M 2704 3696 C 2704 3704.835938 2696.835938 3712 2688 3712 C 2679.164062 3712 2672 3704.835938 2672 3696 C 2672 3687.164062 2679.164062 3680 2688 3680 C 2696.835938 3680 2704 3687.164062 2704 3696 Z M 2704 3696 " transform="matrix(1,0,0,-1,-2479,3857)"/>
<path style="fill:none;stroke-width:0.4;stroke-linecap:butt;stroke-linejoin:round;stroke:rgb(29.4%,29.4%,29%);stroke-opacity:1;stroke-miterlimit:10;" d="M 2576 3840 L 2608 3840 " transform="matrix(1,0,0,-1,-2479,3857)"/>
<path style="fill:none;stroke-width:0.4;stroke-linecap:butt;stroke-linejoin:round;stroke:rgb(29.4%,29.4%,29%);stroke-opacity:1;stroke-miterlimit:10;" d="M 2576 3840 L 2608 3792 " transform="matrix(1,0,0,-1,-2479,3857)"/>
<path style="fill:none;stroke-width:0.4;stroke-linecap:butt;stroke-linejoin:round;stroke:rgb(29.4%,29.4%,29%);stroke-opacity:1;stroke-miterlimit:10;" d="M 2576 3840 L 2608 3744 " transform="matrix(1,0,0,-1,-2479,3857)"/>
<path style="fill:none;stroke-width:0.4;stroke-linecap:butt;stroke-linejoin:round;stroke:rgb(29.4%,29.4%,29%);stroke-opacity:1;stroke-miterlimit:10;" d="M 2576 3840 L 2608 3696 " transform="matrix(1,0,0,-1,-2479,3857)"/>
<path style="fill:none;stroke-width:0.4;stroke-linecap:butt;stroke-linejoin:round;stroke:rgb(29.4%,29.4%,29%);stroke-opacity:1;stroke-miterlimit:10;" d="M 2576 3792 L 2608 3840 " transform="matrix(1,0,0,-1,-2479,3857)"/>
<path style="fill:none;stroke-width:0.4;stroke-linecap:butt;stroke-linejoin:round;stroke:rgb(29.4%,29.4%,29%);stroke-opacity:1;stroke-miterlimit:10;" d="M 2576 3792 L 2608 3792 " transform="matrix(1,0,0,-1,-2479,3857)"/>
<path style="fill:none;stroke-width:0.4;stroke-linecap:butt;stroke-linejoin:round;stroke:rgb(29.4%,29.4%,29%);stroke-opacity:1;stroke-miterlimit:10;" d="M 2576 3792 L 2608 3744 " transform="matrix(1,0,0,-1,-2479,3857)"/>
<path style="fill:none;stroke-width:0.4;stroke-linecap:butt;stroke-linejoin:round;stroke:rgb(29.4%,29.4%,29%);stroke-opacity:1;stroke-miterlimit:10;" d="M 2576 3744 L 2608 3696 " transform="matrix(1,0,0,-1,-2479,3857)"/>
<path style="fill:none;stroke-width:0.4;stroke-linecap:butt;stroke-linejoin:round;stroke:rgb(29.4%,29.4%,29%);stroke-opacity:1;stroke-miterlimit:10;" d="M 2576 3792 L 2608 3696 " transform="matrix(1,0,0,-1,-2479,3857)"/>
<path style="fill:none;stroke-width:0.4;stroke-linecap:butt;stroke-linejoin:round;stroke:rgb(29.4%,29.4%,29%);stroke-opacity:1;stroke-miterlimit:10;" d="M 2576 3744 L 2608 3744 " transform="matrix(1,0,0,-1,-2479,3857)"/>
<path style="fill:none;stroke-width:0.4;stroke-linecap:butt;stroke-linejoin:round;stroke:rgb(29.4%,29.4%,29%);stroke-opacity:1;stroke-miterlimit:10;" d="M 2576 3744 L 2608 3792 " transform="matrix(1,0,0,-1,-2479,3857)"/>
<path style="fill:none;stroke-width:0.4;stroke-linecap:butt;stroke-linejoin:round;stroke:rgb(29.4%,29.4%,29%);stroke-opacity:1;stroke-miterlimit:10;" d="M 2576 3744 L 2608 3840 " transform="matrix(1,0,0,-1,-2479,3857)"/>
<path style="fill:none;stroke-width:0.4;stroke-linecap:butt;stroke-linejoin:round;stroke:rgb(29.4%,29.4%,29%);stroke-opacity:1;stroke-miterlimit:10;" d="M 2576 3696 L 2608 3840 " transform="matrix(1,0,0,-1,-2479,3857)"/>
<path style="fill:none;stroke-width:0.4;stroke-linecap:butt;stroke-linejoin:round;stroke:rgb(29.4%,29.4%,29%);stroke-opacity:1;stroke-miterlimit:10;" d="M 2576 3696 L 2608 3792 " transform="matrix(1,0,0,-1,-2479,3857)"/>
<path style="fill:none;stroke-width:0.4;stroke-linecap:butt;stroke-linejoin:round;stroke:rgb(29.4%,29.4%,29%);stroke-opacity:1;stroke-miterlimit:10;" d="M 2576 3696 L 2608 3744 " transform="matrix(1,0,0,-1,-2479,3857)"/>
<path style="fill:none;stroke-width:0.4;stroke-linecap:butt;stroke-linejoin:round;stroke:rgb(29.4%,29.4%,29%);stroke-opacity:1;stroke-miterlimit:10;" d="M 2576 3696 L 2608 3696 " transform="matrix(1,0,0,-1,-2479,3857)"/>
<path style="fill:none;stroke-width:0.4;stroke-linecap:butt;stroke-linejoin:round;stroke:rgb(29.4%,29.4%,29%);stroke-opacity:1;stroke-miterlimit:10;" d="M 2640 3840 L 2672 3840 " transform="matrix(1,0,0,-1,-2479,3857)"/>
<path style="fill:none;stroke-width:0.4;stroke-linecap:butt;stroke-linejoin:round;stroke:rgb(29.4%,29.4%,29%);stroke-opacity:1;stroke-miterlimit:10;" d="M 2640 3840 L 2672 3792 " transform="matrix(1,0,0,-1,-2479,3857)"/>
<path style="fill:none;stroke-width:0.4;stroke-linecap:butt;stroke-linejoin:round;stroke:rgb(29.4%,29.4%,29%);stroke-opacity:1;stroke-miterlimit:10;" d="M 2640 3840 L 2672 3744 " transform="matrix(1,0,0,-1,-2479,3857)"/>
<path style="fill:none;stroke-width:0.4;stroke-linecap:butt;stroke-linejoin:round;stroke:rgb(29.4%,29.4%,29%);stroke-opacity:1;stroke-miterlimit:10;" d="M 2640 3840 L 2672 3696 " transform="matrix(1,0,0,-1,-2479,3857)"/>
<path style="fill:none;stroke-width:0.4;stroke-linecap:butt;stroke-linejoin:round;stroke:rgb(29.4%,29.4%,29%);stroke-opacity:1;stroke-miterlimit:10;" d="M 2640 3792 L 2672 3840 " transform="matrix(1,0,0,-1,-2479,3857)"/>
<path style="fill:none;stroke-width:0.4;stroke-linecap:butt;stroke-linejoin:round;stroke:rgb(29.4%,29.4%,29%);stroke-opacity:1;stroke-miterlimit:10;" d="M 2640 3792 L 2672 3792 " transform="matrix(1,0,0,-1,-2479,3857)"/>
<path style="fill:none;stroke-width:0.4;stroke-linecap:butt;stroke-linejoin:round;stroke:rgb(29.4%,29.4%,29%);stroke-opacity:1;stroke-miterlimit:10;" d="M 2640 3792 L 2672 3744 " transform="matrix(1,0,0,-1,-2479,3857)"/>
<path style="fill:none;stroke-width:0.4;stroke-linecap:butt;stroke-linejoin:round;stroke:rgb(29.4%,29.4%,29%);stroke-opacity:1;stroke-miterlimit:10;" d="M 2640 3744 L 2672 3696 " transform="matrix(1,0,0,-1,-2479,3857)"/>
<path style="fill:none;stroke-width:0.4;stroke-linecap:butt;stroke-linejoin:round;stroke:rgb(29.4%,29.4%,29%);stroke-opacity:1;stroke-miterlimit:10;" d="M 2640 3792 L 2672 3696 " transform="matrix(1,0,0,-1,-2479,3857)"/>
<path style="fill:none;stroke-width:0.4;stroke-linecap:butt;stroke-linejoin:round;stroke:rgb(29.4%,29.4%,29%);stroke-opacity:1;stroke-miterlimit:10;" d="M 2640 3744 L 2672 3744 " transform="matrix(1,0,0,-1,-2479,3857)"/>
<path style="fill:none;stroke-width:0.4;stroke-linecap:butt;stroke-linejoin:round;stroke:rgb(29.4%,29.4%,29%);stroke-opacity:1;stroke-miterlimit:10;" d="M 2640 3744 L 2672 3792 " transform="matrix(1,0,0,-1,-2479,3857)"/>
<path style="fill:none;stroke-width:0.4;stroke-linecap:butt;stroke-linejoin:round;stroke:rgb(29.4%,29.4%,29%);stroke-opacity:1;stroke-miterlimit:10;" d="M 2640 3744 L 2672 3840 " transform="matrix(1,0,0,-1,-2479,3857)"/>
<path style="fill:none;stroke-width:0.4;stroke-linecap:butt;stroke-linejoin:round;stroke:rgb(29.4%,29.4%,29%);stroke-opacity:1;stroke-miterlimit:10;" d="M 2640 3696 L 2672 3840 " transform="matrix(1,0,0,-1,-2479,3857)"/>
<path style="fill:none;stroke-width:0.4;stroke-linecap:butt;stroke-linejoin:round;stroke:rgb(29.4%,29.4%,29%);stroke-opacity:1;stroke-miterlimit:10;" d="M 2640 3696 L 2672 3792 " transform="matrix(1,0,0,-1,-2479,3857)"/>
<path style="fill:none;stroke-width:0.4;stroke-linecap:butt;stroke-linejoin:round;stroke:rgb(29.4%,29.4%,29%);stroke-opacity:1;stroke-miterlimit:10;" d="M 2640 3696 L 2672 3744 " transform="matrix(1,0,0,-1,-2479,3857)"/>
<path style="fill:none;stroke-width:0.4;stroke-linecap:butt;stroke-linejoin:round;stroke:rgb(29.4%,29.4%,29%);stroke-opacity:1;stroke-miterlimit:10;" d="M 2640 3696 L 2672 3696 " transform="matrix(1,0,0,-1,-2479,3857)"/>
</g>
</svg>
