<svg xmlns="http://www.w3.org/2000/svg" xml:space="preserve" width="155.44" height="32.413"><path d="M84.746 3.066H0l240.074 240.075v-84.989L84.746 3.066M480.145 123.105c0-16.648-3.122-32.253-9.364-46.816-6.242-14.566-14.801-27.246-25.683-38.05-10.887-10.805-23.614-19.368-38.172-25.684-14.571-6.328-30.168-9.489-46.817-9.489-11.043 0-21.691 1.442-31.929 4.325-10.246 2.882-19.805 6.921-28.692 12.12a119.306 119.306 0 0 0-24.242 18.727 119.058 119.058 0 0 0-18.726 24.246c-5.204 8.887-9.243 18.446-12.125 28.692-2.883 10.238-4.321 20.883-4.321 31.929h60.016c0-8.164 1.598-15.882 4.805-23.168 3.199-7.289 7.519-13.648 12.96-19.085 5.442-5.442 11.801-9.766 19.086-12.965 7.286-3.203 15.008-4.801 23.168-4.801 8.317 0 16.121 1.598 23.407 4.8 7.281 3.2 13.644 7.524 19.086 12.966 5.441 5.437 9.726 11.796 12.847 19.085 3.121 7.286 4.68 15.004 4.68 23.168h60.016M640.738 151.078l-15.906 34.235-14.816-34.235zm-16.019 52.668 37.855-80.644h-8.89l-9.434 20.296h-37.523l-8.782-20.296h-8.886l35.66 80.644M718.148 151.078l-15.91 34.235-14.812-34.235zm-16.023 52.668 37.859-80.644h-8.894l-9.434 20.296h-37.523l-8.778-20.296h-8.886l35.656 80.644M774 163.148c2.707 0 5.117.387 7.242 1.153 2.121.765 3.875 1.812 5.27 3.125a13.49 13.49 0 0 1 3.179 4.609 14.439 14.439 0 0 1 1.098 5.598c0 1.976-.367 3.855-1.098 5.648a13.304 13.304 0 0 1-3.179 4.664c-1.395 1.317-3.149 2.364-5.27 3.129-2.125.766-4.535 1.153-7.242 1.153h-17.883v-29.079zm-26.113 36.758h26.66c3.805 0 7.226-.586 10.262-1.758 3.035-1.171 5.593-2.757 7.679-4.769a20.978 20.978 0 0 0 4.828-7.082c1.133-2.703 1.7-5.594 1.7-8.664 0-2.852-.473-5.543-1.426-8.063a19.904 19.904 0 0 0-4.168-6.695c-1.828-1.937-4.043-3.551-6.637-4.828-2.597-1.281-5.543-2.106-8.832-2.473l22.16-32.472h-9.984l-21.941 32.367h-12.071v-32.367h-8.23v76.804M812.332 199.906h8.227v-32.918h40.597v32.918h8.231v-76.804h-8.231v36.203h-40.597v-36.203h-8.227v76.804M885.813 199.906h8.339v-49.047c0-4.097.586-7.535 1.754-10.312 1.172-2.785 2.692-5.012 4.555-6.695a16.664 16.664 0 0 1 6.363-3.618 24.248 24.248 0 0 1 7.188-1.097c2.41 0 4.808.363 7.187 1.097a16.675 16.675 0 0 1 6.364 3.618c1.863 1.683 3.382 3.91 4.554 6.695 1.168 2.777 1.75 6.215 1.75 10.312v49.047h8.344v-50.254c0-4.683-.809-8.777-2.414-12.289-1.609-3.511-3.75-6.457-6.422-8.832a26.68 26.68 0 0 0-9.051-5.324 31.226 31.226 0 0 0-10.312-1.754c-3.512 0-6.949.586-10.313 1.754a26.693 26.693 0 0 0-9.054 5.324c-2.668 2.375-4.809 5.321-6.418 8.832-1.61 3.512-2.414 7.606-2.414 12.289v50.254M962.191 145.594c0-2.344.379-4.52 1.153-6.528.765-2.015 1.844-3.75 3.234-5.214 1.387-1.465 3.055-2.618 4.992-3.457 1.938-.84 4.118-1.258 6.528-1.258 2.414 0 4.625.383 6.64 1.152 2.008.766 3.746 1.844 5.211 3.234a14.77 14.77 0 0 1 3.399 4.883c.804 1.867 1.211 3.895 1.211 6.09 0 2.047-.442 3.84-1.321 5.375-.879 1.539-2.05 2.871-3.508 4.004-1.464 1.133-3.164 2.16-5.105 3.074-1.937.91-3.93 1.77-5.98 2.578a221.564 221.564 0 0 0-8.227 3.348c-2.633 1.133-4.957 2.504-6.969 4.113a19.464 19.464 0 0 0-4.883 5.762c-1.246 2.23-1.863 5.063-1.863 8.504 0 2.851.531 5.523 1.59 8.008 1.059 2.484 2.523 4.644 4.391 6.476 1.863 1.825 4.109 3.25 6.746 4.278 2.633 1.023 5.523 1.535 8.668 1.535 3.218 0 6.164-.551 8.832-1.645 2.672-1.097 4.957-2.597 6.855-4.5 1.906-1.902 3.367-4.152 4.391-6.75 1.027-2.593 1.539-5.429 1.539-8.5h-8.449c0 4.168-1.231 7.496-3.676 9.985-2.449 2.484-5.613 3.73-9.492 3.73-3.875 0-7.039-1.152-9.493-3.457-2.449-2.305-3.675-5.359-3.675-9.16 0-2.051.476-3.789 1.429-5.215.95-1.426 2.192-2.672 3.731-3.73 1.531-1.059 3.305-2.012 5.316-2.852 2.012-.84 4.117-1.699 6.317-2.578a149.674 149.674 0 0 0 7.953-3.402c2.523-1.168 4.75-2.579 6.687-4.223 1.942-1.649 3.496-3.641 4.667-5.977 1.17-2.343 1.76-5.269 1.76-8.781 0-3.437-.64-6.566-1.92-9.379-1.288-2.816-3.042-5.254-5.272-7.301-2.231-2.046-4.844-3.617-7.848-4.714-2.996-1.102-6.215-1.649-9.652-1.649-3.438 0-6.621.606-9.547 1.813-2.922 1.207-5.469 2.886-7.625 5.043-2.16 2.16-3.86 4.703-5.102 7.629-1.246 2.925-1.867 6.14-1.867 9.656h8.234M596.52 80.644h8.339V31.598c0-4.098.586-7.535 1.754-10.313 1.172-2.785 2.692-5.012 4.555-6.695a16.661 16.661 0 0 1 6.363-3.617 24.261 24.261 0 0 1 7.188-1.102c2.414 0 4.808.367 7.187 1.102a16.673 16.673 0 0 1 6.364 3.617c1.863 1.683 3.382 3.91 4.554 6.695 1.168 2.778 1.754 6.215 1.754 10.313v49.047h8.34V30.39c0-4.684-.805-8.782-2.414-12.29-1.609-3.511-3.75-6.457-6.418-8.835a26.751 26.751 0 0 0-9.055-5.32 31.226 31.226 0 0 0-10.312-1.755c-3.512 0-6.949.586-10.313 1.754a26.705 26.705 0 0 0-9.051 5.32c-2.671 2.38-4.812 5.325-6.421 8.837-1.61 3.507-2.414 7.605-2.414 12.289v50.254M670.387 83.387l53.652-61.555v58.813h8.234V1.093L678.617 62.43V3.836h-8.23v79.55M750.426 80.644h8.23V3.836h-8.23v76.808M768.387 80.644h8.992l25.461-60.46 23.695 60.46h8.781L802.945 0l-34.558 80.644M844.719 80.644h46.086v-7.68h-37.86V47.724h34.567v-7.68h-34.567V11.52h37.86V3.836h-46.086v76.808M930.344 43.887c2.707 0 5.117.386 7.242 1.152 2.117.766 3.875 1.813 5.269 3.125a13.381 13.381 0 0 1 3.176 4.61 14.349 14.349 0 0 1 1.102 5.593c0 1.98-.367 3.86-1.102 5.652a13.22 13.22 0 0 1-3.176 4.66c-1.394 1.321-3.152 2.364-5.269 3.133-2.125.766-4.535 1.153-7.242 1.153h-17.887V43.887ZM904.23 80.644h26.661c3.804 0 7.226-.585 10.257-1.757 3.04-1.172 5.598-2.758 7.68-4.77a21 21 0 0 0 4.832-7.082c1.133-2.703 1.699-5.594 1.699-8.668 0-2.851-.472-5.539-1.425-8.058a19.822 19.822 0 0 0-4.172-6.696c-1.824-1.937-4.043-3.55-6.633-4.828-2.598-1.281-5.543-2.105-8.836-2.472l22.164-32.477h-9.984l-21.946 32.371h-12.07V3.836h-8.227v76.808M973.18 26.332c0-2.344.383-4.52 1.152-6.527.77-2.016 1.848-3.75 3.238-5.215 1.387-1.465 3.051-2.617 4.993-3.457 1.937-.84 4.113-1.262 6.527-1.262 2.41 0 4.625.387 6.64 1.152 2.008.77 3.747 1.848 5.21 3.239a14.797 14.797 0 0 1 3.4 4.882c.8 1.868 1.21 3.891 1.21 6.09 0 2.047-.44 3.836-1.32 5.375-.88 1.54-2.05 2.871-3.51 4.004-1.466 1.133-3.165 2.16-5.103 3.07a97.112 97.112 0 0 1-5.98 2.579 225.49 225.49 0 0 0-8.227 3.351c-2.633 1.133-4.957 2.504-6.969 4.11a19.529 19.529 0 0 0-4.882 5.761c-1.246 2.235-1.868 5.067-1.868 8.508 0 2.852.536 5.524 1.594 8.008 1.059 2.484 2.524 4.644 4.391 6.473 1.863 1.828 4.109 3.254 6.746 4.277 2.633 1.027 5.523 1.54 8.668 1.54 3.219 0 6.16-.552 8.832-1.646 2.668-1.097 4.958-2.597 6.858-4.503 1.9-1.899 3.36-4.149 4.39-6.746 1.02-2.594 1.54-5.43 1.54-8.5h-8.45c0 4.168-1.23 7.492-3.678 9.984-2.453 2.484-5.617 3.73-9.492 3.73-3.879 0-7.043-1.152-9.492-3.457-2.453-2.304-3.676-5.363-3.676-9.16 0-2.05.476-3.789 1.43-5.215.945-1.425 2.191-2.671 3.73-3.73 1.531-1.059 3.305-2.012 5.316-2.852 2.012-.84 4.118-1.699 6.313-2.578 2.781-1.097 5.43-2.23 7.959-3.402 2.52-1.168 4.75-2.578 6.69-4.227a18.834 18.834 0 0 0 4.66-5.976c1.17-2.344 1.76-5.266 1.76-8.778 0-3.437-.64-6.566-1.92-9.378-1.29-2.82-3.04-5.254-5.27-7.301-2.23-2.047-4.84-3.617-7.848-4.72-3-1.097-6.215-1.644-9.652-1.644-3.438 0-6.621.606-9.547 1.813-2.926 1.207-5.469 2.887-7.629 5.043-2.156 2.16-3.855 4.703-5.101 7.629-1.243 2.922-1.864 6.14-1.864 9.656h8.231M1028.04 80.644h8.23V3.836h-8.23v76.808M1068.49 72.965H1046v7.68h53.21v-7.68h-22.49V3.835h-8.23v69.13M1131.15 39.715l-26.33 40.93h9.65l20.85-33.356 20.85 33.355h9.65l-26.44-41.148V3.836h-8.23v35.879" style="fill:#fff;fill-opacity:1;fill-rule:nonzero;stroke:none" transform="matrix(.13333 0 0 -.13333 0 32.413)"/></svg>